<svg width="70" height="70" viewBox="0 0 70 70" fill="none" xmlns="http://www.w3.org/2000/svg">
<path d="M36.4 63V40.6H32.2V33.6H36.4V29.4C36.4 23.8 39.2 19.6 44.8 19.6C48.8642 19.6 51.8 21 51.8 21V26.6H49C45.997 26.6 44.8 27.3056 44.8 29.4V33.6H51.8L50.4 40.6H44.8V63" stroke="black" stroke-width="2" stroke-miterlimit="10" stroke-linecap="round"/>
<path d="M12.6 63H57.4C60.4926 63 63 60.4926 63 57.4V12.6C63 9.5074 60.4926 7 57.4 7H12.6C9.5074 7 7 9.5074 7 12.6V57.4C7 60.4926 9.5074 63 12.6 63Z" stroke="black" stroke-width="2" stroke-miterlimit="10" stroke-linecap="round" stroke-linejoin="round"/>
</svg>
