<svg width="70" height="70" viewBox="0 0 70 70" fill="none" xmlns="http://www.w3.org/2000/svg">
<path d="M22.4 2.8C12.3655 2.8 4.20001 10.9655 4.20001 21V46.2C4.20001 56.2345 12.3655 64.4 22.4 64.4H47.6C57.6345 64.4 65.8 56.2345 65.8 46.2V21C65.8 10.9655 57.6345 2.8 47.6 2.8H22.4ZM22.4 5.6H47.6C56.1211 5.6 63 12.4789 63 21V46.2C63 54.7211 56.1211 61.6 47.6 61.6H22.4C13.8789 61.6 7.00001 54.7211 7.00001 46.2V21C7.00001 12.4789 13.8789 5.6 22.4 5.6ZM51.8 14C51.0574 14 50.3452 14.295 49.8201 14.8201C49.295 15.3452 49 16.0574 49 16.8C49 17.5426 49.295 18.2548 49.8201 18.7799C50.3452 19.305 51.0574 19.6 51.8 19.6C52.5426 19.6 53.2548 19.305 53.7799 18.7799C54.305 18.2548 54.6 17.5426 54.6 16.8C54.6 16.0574 54.305 15.3452 53.7799 14.8201C53.2548 14.295 52.5426 14 51.8 14ZM35 18.2C26.5114 18.2 19.6 25.1114 19.6 33.6C19.6 42.0886 26.5114 49 35 49C43.4886 49 50.4 42.0886 50.4 33.6C50.4 25.1114 43.4886 18.2 35 18.2ZM35 21C41.9754 21 47.6 26.6246 47.6 33.6C47.6 40.5754 41.9754 46.2 35 46.2C28.0246 46.2 22.4 40.5754 22.4 33.6C22.4 26.6246 28.0246 21 35 21Z" fill="black"/>
</svg>
