<svg width="175" height="174" viewBox="0 0 175 174" fill="none" xmlns="http://www.w3.org/2000/svg">
<path d="M132.246 124.141C104.526 108.738 88.7231 129.139 84.2866 141.265" stroke="black" stroke-width="4"/>
<path d="M83.7567 141.698C81.1297 110.288 55.2423 108.701 42.627 111.833" stroke="black" stroke-width="4"/>
<path d="M44.5553 111.077C60.5655 83.8522 40.2783 67.8226 28.1334 63.211" stroke="black" stroke-width="4"/>
<path d="M27.6298 63.3222C59.214 66.7573 65.7248 41.8527 65.0321 28.9711" stroke="black" stroke-width="4"/>
<path d="M65.3492 28.3668C80.14 56.2619 104.595 47.6898 114.973 39.9168" stroke="black" stroke-width="4"/>
<path d="M113.496 41.3598C109.482 72.6256 134.471 79.5177 147.467 79.0556" stroke="black" stroke-width="4"/>
<path d="M147.591 78.8292C122.393 83.9949 126.697 110.948 131.999 123.779" stroke="black" stroke-width="4"/>
<path fill-rule="evenodd" clip-rule="evenodd" d="M86.3021 103.27C98.0226 103.27 107.524 93.8453 107.524 82.2189C107.524 70.5925 98.0226 61.1675 86.3021 61.1675C74.5815 61.1675 65.0802 70.5925 65.0802 82.2189C65.0802 93.8453 74.5815 103.27 86.3021 103.27ZM86.3327 93.7214C92.5377 93.7214 97.5679 88.7317 97.5679 82.5765C97.5679 76.4214 92.5377 71.4316 86.3327 71.4316C80.1277 71.4316 75.0976 76.4214 75.0976 82.5765C75.0976 88.7317 80.1277 93.7214 86.3327 93.7214Z" fill="black"/>
<ellipse cx="90.2087" cy="88.3737" rx="7.7845" ry="7.78421" fill="black"/>
<path d="M112.889 42.1263C122.781 32.0526 119.852 29.3053 114.539 24.2684" stroke="black" stroke-width="4"/>
<path d="M113.623 41.6683C125.529 41.2104 128.734 35.7159 130.108 27.4738" stroke="black" stroke-width="4"/>
<path d="M13.089 51.5841C3.84971 55.8186 8.46937 59.2832 29.2578 63.7194C26.178 62.8211 6.15957 63.1328 7.69945 69.677" stroke="black" stroke-width="4"/>
<path d="M44.789 133.022C25.1378 128.551 46.5377 123.038 44.7102 110.811C34.9429 112.579 15.3168 117.981 20.1143 122.82" stroke="black" stroke-width="4"/>
<path d="M84.3168 141.032C81.7219 144.847 77.6313 153.303 82.0272 156.6C86.4232 159.897 83.8589 164.079 82.0272 165.758M84.3168 141.032C84.4694 144.39 85.2326 153.395 94.3908 157.974M84.3168 141.032C73.7299 156.6 61.8791 148.358 68.7477 160.721" stroke="black" stroke-width="4"/>
<path d="M146.043 79.4952C150.474 80.7838 159.78 82.0611 161.557 76.8617C163.334 71.6623 168.104 72.8086 170.267 74.0318M146.043 79.4952C149.189 78.3124 157.518 74.8038 159.043 64.6792M146.043 79.4952C164.121 84.7527 159.944 98.5699 169.58 88.2173" stroke="black" stroke-width="4"/>
<path d="M65.4341 29.1847C66.6064 24.7216 67.6397 15.3854 62.3953 13.745C57.151 12.1046 58.1721 7.30644 59.3382 5.1124M65.4341 29.1847C64.1693 26.0703 60.4438 17.8364 50.2823 16.577M65.4341 29.1847C70.2168 10.9754 84.1392 14.789 73.5374 5.42773" stroke="black" stroke-width="4"/>
<path d="M136.977 148.816C145.402 141.123 137.129 128.821 131.94 123.632C134.992 127.905 143.662 137.002 153.919 139.2" stroke="black" stroke-width="4"/>
</svg>
